<svg width="232" height="38" viewBox="0 0 232 38" fill="none" xmlns="http://www.w3.org/2000/svg">
<path d="M18.3564 28.0451V30H3.31604V7.61288H18.0726V9.56781H5.52322V17.6398H16.4645V19.5001H5.52322V28.0451H18.3564ZM20.6722 25.2703C20.6722 24.2403 20.9665 23.3574 21.5551 22.6217C22.1437 21.865 22.953 21.2869 23.983 20.8875C25.034 20.4671 26.2427 20.2569 27.6091 20.2569C28.4079 20.2569 29.2382 20.3199 30.1 20.4461C30.9619 20.5722 31.7291 20.7614 32.4018 21.0136V19.6262C32.4018 18.2389 31.9919 17.1353 31.1721 16.3155C30.3523 15.4957 29.2172 15.0858 27.7667 15.0858C26.8839 15.0858 26.0115 15.2539 25.1496 15.5903C24.3088 15.9056 23.4259 16.3785 22.501 17.0092L21.6812 15.4957C22.7533 14.7599 23.8043 14.2134 24.8343 13.856C25.8643 13.4777 26.9154 13.2885 27.9874 13.2885C30.0054 13.2885 31.603 13.8666 32.7802 15.0227C33.9573 16.1788 34.5459 17.7764 34.5459 19.8154V27.4144C34.5459 27.7087 34.609 27.9295 34.7351 28.0766C34.8612 28.2027 35.0609 28.2763 35.3342 28.2973V30C35.103 30.021 34.9033 30.042 34.7351 30.0631C34.5669 30.0841 34.4408 30.0841 34.3567 30.0631C33.8312 30.042 33.4318 29.8739 33.1586 29.5586C32.8853 29.2433 32.7381 28.9069 32.7171 28.5496L32.6856 27.3514C31.9499 28.2973 30.9934 29.033 29.8163 29.5586C28.6391 30.0631 27.4409 30.3153 26.2217 30.3153C25.1707 30.3153 24.2142 30.0946 23.3524 29.6532C22.5115 29.1907 21.8494 28.5811 21.3659 27.8243C20.9034 27.0466 20.6722 26.1952 20.6722 25.2703ZM31.6766 26.5316C31.9078 26.2373 32.0865 25.9535 32.2126 25.6802C32.3387 25.407 32.4018 25.1652 32.4018 24.955V22.5586C31.6871 22.2854 30.9409 22.0752 30.1631 21.928C29.4063 21.7809 28.6391 21.7073 27.8613 21.7073C26.3268 21.7073 25.0866 22.0121 24.1406 22.6217C23.1947 23.2313 22.7217 24.0616 22.7217 25.1127C22.7217 25.7223 22.8794 26.3003 23.1947 26.8469C23.51 27.3724 23.9725 27.8138 24.5821 28.1712C25.1917 28.5075 25.9064 28.6757 26.7262 28.6757C27.7562 28.6757 28.7127 28.476 29.5955 28.0766C30.4994 27.6772 31.1931 27.1622 31.6766 26.5316ZM47.3766 15.4641C45.9472 15.5062 44.686 15.9056 43.5929 16.6623C42.5208 17.4191 41.7641 18.4596 41.3227 19.7839V30H39.1785V13.5723H41.1965V17.5137C41.7641 16.3575 42.5103 15.4221 43.4352 14.7074C44.3812 13.9927 45.3797 13.5933 46.4307 13.5092C46.6409 13.4882 46.8196 13.4777 46.9667 13.4777C47.1349 13.4777 47.2715 13.4882 47.3766 13.5092V15.4641ZM64.0436 30H61.8995V20.8244C61.8995 18.8905 61.6157 17.4821 61.0481 16.5993C60.4806 15.6954 59.5872 15.2434 58.368 15.2434C57.5271 15.2434 56.6968 15.4536 55.877 15.874C55.0572 16.2734 54.332 16.8305 53.7014 17.5452C53.0917 18.2389 52.6503 19.0377 52.377 19.9416V30H50.2329V13.5723H52.1879V17.2929C52.6293 16.4942 53.2074 15.8005 53.9221 15.2119C54.6368 14.6023 55.4461 14.1293 56.35 13.793C57.2539 13.4567 58.1893 13.2885 59.1562 13.2885C60.0601 13.2885 60.8274 13.4567 61.458 13.793C62.0886 14.1293 62.5931 14.6128 62.9715 15.2434C63.3499 15.853 63.6232 16.5993 63.7913 17.4821C63.9595 18.344 64.0436 19.3109 64.0436 20.383V30ZM78.1382 30.1577C76.4986 30.1577 75.0062 29.8423 73.6608 29.2117C72.3365 28.5811 71.1909 27.7298 70.2239 26.6577C69.278 25.5646 68.5423 24.3454 68.0167 23.0001C67.4912 21.6337 67.2285 20.2359 67.2285 18.8064C67.2285 17.314 67.5017 15.8951 68.0483 14.5497C68.6158 13.1834 69.3831 11.9747 70.3501 10.9236C71.338 9.85159 72.4942 9.01076 73.8185 8.40115C75.1638 7.77053 76.6353 7.45522 78.2328 7.45522C79.8514 7.45522 81.3229 7.78104 82.6472 8.43269C83.9925 9.08433 85.1382 9.95669 86.0841 11.0498C87.03 12.1429 87.7658 13.3621 88.2913 14.7074C88.8168 16.0527 89.0796 17.4401 89.0796 18.8695C89.0796 20.341 88.8063 21.7599 88.2597 23.1262C87.7132 24.4715 86.946 25.6802 85.958 26.7523C84.991 27.8033 83.8349 28.6336 82.4895 29.2433C81.1652 29.8529 79.7148 30.1577 78.1382 30.1577ZM71.6428 18.8064C71.6428 19.7734 71.79 20.7088 72.0843 21.6127C72.3786 22.5166 72.799 23.3259 73.3455 24.0406C73.9131 24.7343 74.5962 25.2913 75.395 25.7118C76.2148 26.1112 77.1398 26.3109 78.1698 26.3109C79.2208 26.3109 80.1562 26.1006 80.9761 25.6802C81.7959 25.2388 82.479 24.6607 83.0256 23.946C83.5721 23.2103 83.982 22.401 84.2553 21.5181C84.5496 20.6142 84.6967 19.7103 84.6967 18.8064C84.6967 17.8395 84.5391 16.9146 84.2238 16.0317C83.9295 15.1278 83.4985 14.329 82.931 13.6353C82.3844 12.9206 81.7013 12.3636 80.8815 11.9642C80.0827 11.5438 79.1788 11.3336 78.1698 11.3336C77.0977 11.3336 76.1518 11.5543 75.332 11.9957C74.5332 12.4161 73.8605 12.9837 73.314 13.6984C72.7674 14.4131 72.347 15.2119 72.0527 16.0948C71.7795 16.9776 71.6428 17.8815 71.6428 18.8064ZM101.754 30.3153C100.472 30.3153 99.337 30.0315 98.349 29.464C97.382 28.8754 96.6253 28.0871 96.0787 27.0991V36.7161H91.8536V13.4777H95.5427V16.3155C96.1733 15.3485 96.9721 14.5918 97.9391 14.0452C98.906 13.4777 100.01 13.1939 101.25 13.1939C102.364 13.1939 103.383 13.4146 104.308 13.856C105.254 14.2975 106.074 14.9176 106.768 15.7164C107.461 16.4942 107.998 17.398 108.376 18.4281C108.775 19.4371 108.975 20.5301 108.975 21.7073C108.975 23.3049 108.66 24.7553 108.029 26.0586C107.419 27.3619 106.568 28.4024 105.475 29.1802C104.403 29.9369 103.163 30.3153 101.754 30.3153ZM100.335 26.7208C100.987 26.7208 101.576 26.5841 102.101 26.3109C102.627 26.0376 103.079 25.6697 103.457 25.2073C103.856 24.7238 104.151 24.1878 104.34 23.5992C104.55 22.9896 104.655 22.3589 104.655 21.7073C104.655 21.0136 104.54 20.3725 104.308 19.7839C104.098 19.1953 103.783 18.6803 103.362 18.2389C102.942 17.7764 102.448 17.4191 101.88 17.1668C101.334 16.9146 100.735 16.7884 100.083 16.7884C99.6838 16.7884 99.2739 16.862 98.8535 17.0092C98.4541 17.1353 98.0652 17.3245 97.6868 17.5767C97.3085 17.829 96.9721 18.1233 96.6778 18.4596C96.4046 18.7959 96.2049 19.1638 96.0787 19.5632V23.4415C96.331 24.0511 96.6673 24.6082 97.0877 25.1127C97.5292 25.6172 98.0337 26.0166 98.6012 26.3109C99.1688 26.5841 99.7469 26.7208 100.335 26.7208ZM121.738 30.3153C120.456 30.3153 119.321 30.0315 118.333 29.464C117.366 28.8754 116.609 28.0871 116.063 27.0991V36.7161H111.838V13.4777H115.527V16.3155C116.157 15.3485 116.956 14.5918 117.923 14.0452C118.89 13.4777 119.994 13.1939 121.234 13.1939C122.348 13.1939 123.368 13.4146 124.292 13.856C125.238 14.2975 126.058 14.9176 126.752 15.7164C127.446 16.4942 127.982 17.398 128.36 18.4281C128.759 19.4371 128.959 20.5301 128.959 21.7073C128.959 23.3049 128.644 24.7553 128.013 26.0586C127.404 27.3619 126.552 28.4024 125.459 29.1802C124.387 29.9369 123.147 30.3153 121.738 30.3153ZM120.32 26.7208C120.971 26.7208 121.56 26.5841 122.085 26.3109C122.611 26.0376 123.063 25.6697 123.441 25.2073C123.841 24.7238 124.135 24.1878 124.324 23.5992C124.534 22.9896 124.639 22.3589 124.639 21.7073C124.639 21.0136 124.524 20.3725 124.292 19.7839C124.082 19.1953 123.767 18.6803 123.347 18.2389C122.926 17.7764 122.432 17.4191 121.865 17.1668C121.318 16.9146 120.719 16.7884 120.067 16.7884C119.668 16.7884 119.258 16.862 118.838 17.0092C118.438 17.1353 118.049 17.3245 117.671 17.5767C117.293 17.829 116.956 18.1233 116.662 18.4596C116.389 18.7959 116.189 19.1638 116.063 19.5632V23.4415C116.315 24.0511 116.651 24.6082 117.072 25.1127C117.513 25.6172 118.018 26.0166 118.585 26.3109C119.153 26.5841 119.731 26.7208 120.32 26.7208ZM131.223 18.6488C131.223 17.2824 131.454 15.9476 131.916 14.6443C132.4 13.32 133.094 12.1218 133.997 11.0498C134.901 9.95669 136.015 9.09484 137.34 8.46422C138.664 7.81257 140.167 7.48675 141.849 7.48675C143.846 7.48675 145.548 7.94921 146.957 8.87412C148.386 9.77802 149.437 10.9447 150.11 12.3741L148.376 13.4461C147.892 12.4582 147.283 11.6804 146.547 11.1128C145.811 10.5243 145.023 10.1038 144.182 9.85159C143.362 9.59934 142.542 9.47322 141.723 9.47322C140.377 9.47322 139.19 9.74649 138.16 10.293C137.13 10.8185 136.257 11.5333 135.542 12.4371C134.849 13.32 134.323 14.3185 133.966 15.4326C133.609 16.5257 133.43 17.6398 133.43 18.7749C133.43 20.0151 133.64 21.2028 134.06 22.3379C134.481 23.473 135.069 24.482 135.826 25.3649C136.583 26.2268 137.466 26.9205 138.475 27.446C139.505 27.9505 140.619 28.2027 141.817 28.2027C142.658 28.2027 143.52 28.0556 144.403 27.7613C145.286 27.467 146.105 27.0151 146.862 26.4054C147.64 25.7958 148.26 25.0076 148.722 24.0406L150.551 24.9865C150.089 26.1006 149.374 27.0466 148.407 27.8243C147.44 28.6021 146.358 29.1907 145.159 29.5901C143.982 29.9895 142.826 30.1892 141.691 30.1892C140.157 30.1892 138.748 29.8634 137.466 29.2117C136.184 28.5391 135.069 27.6562 134.124 26.5631C133.199 25.449 132.484 24.2088 131.979 22.8424C131.475 21.4551 131.223 20.0572 131.223 18.6488ZM160.974 30.3153C159.797 30.3153 158.704 30.0946 157.695 29.6532C156.686 29.1907 155.813 28.5706 155.077 27.7928C154.342 26.994 153.764 26.0796 153.343 25.0496C152.944 24.0196 152.744 22.916 152.744 21.7388C152.744 20.2043 153.091 18.7959 153.785 17.5137C154.499 16.2314 155.477 15.2119 156.717 14.4551C157.957 13.6774 159.366 13.2885 160.942 13.2885C162.561 13.2885 163.969 13.6774 165.167 14.4551C166.387 15.2329 167.343 16.2629 168.037 17.5452C168.73 18.8064 169.077 20.1938 169.077 21.7073C169.077 21.8755 169.077 22.0436 169.077 22.2118C169.077 22.3589 169.067 22.4746 169.046 22.5586H154.983C155.088 23.7358 155.414 24.7868 155.96 25.7118C156.528 26.6157 157.253 27.3409 158.136 27.8874C159.04 28.4129 160.017 28.6757 161.068 28.6757C162.14 28.6757 163.149 28.4024 164.095 27.8559C165.062 27.3093 165.735 26.5946 166.113 25.7118L167.974 26.2163C167.637 26.994 167.122 27.6982 166.429 28.3288C165.735 28.9595 164.915 29.4535 163.969 29.8108C163.044 30.1471 162.046 30.3153 160.974 30.3153ZM154.92 21.0136H167.059C166.975 19.8154 166.649 18.7644 166.082 17.8605C165.535 16.9566 164.81 16.2524 163.906 15.7479C163.023 15.2224 162.046 14.9596 160.974 14.9596C159.902 14.9596 158.924 15.2224 158.041 15.7479C157.159 16.2524 156.433 16.9671 155.866 17.892C155.319 18.7959 155.004 19.8365 154.92 21.0136ZM186.196 30H184.052V20.8244C184.052 18.8905 183.768 17.4821 183.201 16.5993C182.633 15.6954 181.74 15.2434 180.52 15.2434C179.68 15.2434 178.849 15.4536 178.029 15.874C177.21 16.2734 176.484 16.8305 175.854 17.5452C175.244 18.2389 174.803 19.0377 174.529 19.9416V30H172.385V13.5723H174.34V17.2929C174.782 16.4942 175.36 15.8005 176.075 15.2119C176.789 14.6023 177.599 14.1293 178.502 13.793C179.406 13.4567 180.342 13.2885 181.309 13.2885C182.213 13.2885 182.98 13.4567 183.61 13.793C184.241 14.1293 184.746 14.6128 185.124 15.2434C185.502 15.853 185.776 16.5993 185.944 17.4821C186.112 18.344 186.196 19.3109 186.196 20.383V30ZM198.497 29.2117C198.329 29.2748 198.066 29.3904 197.709 29.5586C197.351 29.7267 196.921 29.8739 196.416 30C195.912 30.1261 195.365 30.1892 194.776 30.1892C194.167 30.1892 193.589 30.0736 193.042 29.8423C192.517 29.6111 192.096 29.2643 191.781 28.8018C191.466 28.3183 191.308 27.7298 191.308 27.0361V15.2749H189.038V13.5723H191.308V8.02278H193.452V13.5723H197.236V15.2749H193.452V26.437C193.494 27.0256 193.704 27.467 194.083 27.7613C194.482 28.0556 194.934 28.2027 195.439 28.2027C196.027 28.2027 196.563 28.1081 197.047 27.9189C197.53 27.7087 197.824 27.5616 197.93 27.4775L198.497 29.2117ZM207.993 30.3153C206.816 30.3153 205.723 30.0946 204.714 29.6532C203.705 29.1907 202.833 28.5706 202.097 27.7928C201.361 26.994 200.783 26.0796 200.363 25.0496C199.963 24.0196 199.764 22.916 199.764 21.7388C199.764 20.2043 200.111 18.7959 200.804 17.5137C201.519 16.2314 202.496 15.2119 203.737 14.4551C204.977 13.6774 206.385 13.2885 207.962 13.2885C209.58 13.2885 210.989 13.6774 212.187 14.4551C213.406 15.2329 214.363 16.2629 215.056 17.5452C215.75 18.8064 216.097 20.1938 216.097 21.7073C216.097 21.8755 216.097 22.0436 216.097 22.2118C216.097 22.3589 216.086 22.4746 216.065 22.5586H202.002C202.108 23.7358 202.433 24.7868 202.98 25.7118C203.548 26.6157 204.273 27.3409 205.156 27.8874C206.059 28.4129 207.037 28.6757 208.088 28.6757C209.16 28.6757 210.169 28.4024 211.115 27.8559C212.082 27.3093 212.755 26.5946 213.133 25.7118L214.993 26.2163C214.657 26.994 214.142 27.6982 213.448 28.3288C212.755 28.9595 211.935 29.4535 210.989 29.8108C210.064 30.1471 209.065 30.3153 207.993 30.3153ZM201.939 21.0136H214.079C213.995 19.8154 213.669 18.7644 213.101 17.8605C212.555 16.9566 211.83 16.2524 210.926 15.7479C210.043 15.2224 209.065 14.9596 207.993 14.9596C206.921 14.9596 205.944 15.2224 205.061 15.7479C204.178 16.2524 203.453 16.9671 202.885 17.892C202.339 18.7959 202.024 19.8365 201.939 21.0136ZM227.603 15.4641C226.174 15.5062 224.912 15.9056 223.819 16.6623C222.747 17.4191 221.991 18.4596 221.549 19.7839V30H219.405V13.5723H221.423V17.5137C221.991 16.3575 222.737 15.4221 223.662 14.7074C224.608 13.9927 225.606 13.5933 226.657 13.5092C226.867 13.4882 227.046 13.4777 227.193 13.4777C227.361 13.4777 227.498 13.4882 227.603 13.5092V15.4641Z" fill="#1E1E1E"/>
<ellipse cx="77.9667" cy="18.1645" rx="3.4273" ry="4.45549" fill="white"/>
</svg>
